<svg width="26" height="26" fill="none" xmlns="http://www.w3.org/2000/svg"><path fill-rule="evenodd" clip-rule="evenodd" d="M26 13c0 7.1797-5.8203 13-13 13S0 20.1797 0 13 5.8203 0 13 0s13 5.8203 13 13zM6.17025 8.25174c.15888.14656.24002.3618.21848.57956v7.8406c.04715.2829-.03997.5718-.23467.7783l-1.82073 2.2603v.298h5.16278v-.298l-1.82073-2.2603c-.19612-.2062-.28864-.4932-.25085-.7783V9.89107L11.9561 20.0085h.526l3.8923-10.11743v8.06413c0 .2153 0 .2567-.1376.3975l-1.3999 1.3909v.2981h6.7974v-.2981l-1.3514-1.3578c-.1193-.0931-.1785-.246-.1537-.3974V8.01164c-.0248-.15139.0344-.30435.1537-.39742l1.3838-1.35783v-.29806h-4.7906l-3.4148 8.71827-3.88427-8.71827H4.55182v.29806l1.61843 1.99535z" fill="#fff"/></svg>