<svg width="56" height="60" fill="none" xmlns="http://www.w3.org/2000/svg"><g clip-path="url(#clip0)" fill="#fff"><path d="M38.2883 1.38824C41.0491.014733 43.5251-.339443 45.7165.325717c2.1913.665159 4.0002 2.441793 5.4266 5.329913.7505 1.51173 1.2423 2.92843 1.4839 4.26739.2415 1.33898.207 2.57428-.0949 3.71448-.302 1.1403-.9059 2.2029-1.7859 3.1617-.88.9589-2.0706 1.8141-3.5545 2.5484l-6.1599 3.058-8.9034-17.96799 6.1599-3.04937zm8.1011 15.85156c.3351-.1689.6606-.3564.9749-.5615.4132-.2671.7927-.5833 1.1302-.9416.3903-.4072.7267-.863 1.0007-1.3562.3091-.5649.5082-1.1835.5867-1.8228.0949-.691.0604-1.4858-.1035-2.3842-.164-.89836-.5177-1.89178-1.0612-2.9975-.5349-1.07117-1.1129-1.9782-1.7427-2.72111-.6298-.74291-1.3286-1.29577-2.1051-1.64994-.7893-.35676-1.6558-.50829-2.5192-.44056-.9058.06047-1.9152.37145-3.0195.92431l-4.0204 1.99548 6.9105 13.94242 3.9686-1.9868zM53.5669 54.506l-4.0289-9.1568-5.2713 13.2514L41.1091 60l4.4776-10.8153-12.8548-7.4118 3.08-1.3562 10.7065 6.3579 1.7945-4.1983-2.8212-6.427 2.433-1.0798 8.0751 18.3567-2.4329 1.0798zM15.5809 36.9095l-.8627 1.7709.0517.0259c.6856-.5456 1.5507-.8138 2.4243-.7515.9498.0588 1.8776.3117 2.7262.7429 1.0094.4924 1.7945 1.1057 2.3639 1.84.5548.7048.944 1.5255 1.1388 2.4015.1922.8948.2156 1.8177.0691 2.7211-.1567.9756-.4592 1.922-.8973 2.8075-.426.8916-.9813 1.7154-1.6478 2.4446-.6048.6765-1.338 1.2256-2.1568 1.6154-.8085.3729-1.6895.5618-2.5796.5529-.9231 0-1.8808-.2505-2.8729-.7343-.3632-.1789-.7097-.3899-1.0353-.6306-.3611-.2672-.6936-.5712-.9921-.907-.3131-.3534-.5798-.7453-.7938-1.1662-.2199-.437-.3546-.9119-.3968-1.3994l-.0518-.026-3.26973 6.7233-2.13958-1.0478 8.78261-18.0284 2.1396 1.0452zm5.4525 8.3966c.1204-.6299.1292-1.2761.0258-1.9091-.1074-.6171-.3586-1.2001-.7333-1.7018-.3796-.5183-.9145-.9502-1.6047-1.2871-.7247-.3542-1.4062-.5097-2.0533-.4665-.6262.0384-1.2361.2155-1.7858.5183-.5581.318-1.0525.7369-1.458 1.2353-.8766 1.0564-1.4809 2.312-1.76 3.6567-.1371.6333-.1546 1.2866-.0518 1.9263.1082.6237.3624 1.2128.742 1.7191.3882.5356.949.9761 1.6909 1.339.7247.3541 1.4063.5096 2.0533.4664.6222-.0354 1.2263-.2222 1.76-.5442.5552-.3403 1.0435-.7795 1.4408-1.2958.4345-.5477.8077-1.1416 1.1129-1.7708.2852-.5991.4939-1.2319.6212-1.8832M1.90664 13.6808L14.33 26.4225l7.592-7.4204 1.5702 1.6154-9.4987 9.2776L0 15.5381l1.90664-1.8573z"/></g><defs><clipPath id="clip0"><path fill="#fff" d="M0 0h56v60H0z"/></clipPath></defs></svg>