<svg width="26" height="26" fill="none" xmlns="http://www.w3.org/2000/svg"><path fill-rule="evenodd" clip-rule="evenodd" d="M13 0C5.8203 0 0 5.8203 0 13s5.8203 13 13 13 13-5.8203 13-13S20.1797 0 13 0zm-2.8583 6.10856c.7395-.03366.9759-.04189 2.8589-.04189h-.0022c1.8836 0 2.119.00823 2.8586.04189.7381.0338 1.2422.15065 1.6842.32211.4565.17695.8421.41384 1.2278.79951.3857.38538.6226.77221.8002 1.22822.1705.44085.2875.94468.3222 1.6828.0332.7396.0418.9759.0418 2.8589 0 1.883-.0086 2.1187-.0418 2.8583-.0347.7378-.1517 1.2418-.3222 1.6828-.1776.4558-.4145.8427-.8002 1.228-.3852.3857-.7715.6232-1.2273.8003-.4412.1714-.9456.2883-1.6837.3221-.7396.0336-.9752.0419-2.8583.0419-1.8829 0-2.119-.0083-2.8586-.0419-.73797-.0338-1.24194-.1507-1.68308-.3221-.45572-.1771-.84255-.4146-1.22779-.8003-.38552-.3853-.62241-.7722-.79965-1.2282-.17131-.4408-.28817-.9447-.32211-1.6828-.03352-.7395-.04189-.9751-.04189-2.8581s.00866-2.1195.04174-2.859c.03322-.73787.15023-1.24185.32212-1.68284.17766-.45587.41456-.8427.80023-1.22808.38538-.38553.7722-.62242 1.22822-.79951.44085-.17146.94468-.28831 1.68281-.32211z" fill="#fff"/><path fill-rule="evenodd" clip-rule="evenodd" d="M12.3789 7.31613c.1207-.00019.2507-.00014.3909-.00007l.231.00007c1.8513 0 2.0707.00664 2.8017.03986.676.03091 1.0429.14387 1.2873.23877.3236.12567.5543.27589.7968.51856.2427.24267.3929.47379.5188.79734.0949.24412.208.61101.2388 1.28704.0332.7309.0404.9504.0404 2.8008 0 1.8503-.0072 2.0699-.0404 2.8008-.0309.676-.1439 1.0429-.2388 1.287-.1256.3236-.2761.554-.5188.7965-.2427.2427-.4731.3929-.7968.5185-.2441.0954-.6113.208-1.2873.239-.7309.0332-.9504.0404-2.8017.0404-1.8513 0-2.0707-.0072-2.8016-.0404-.67604-.0312-1.04293-.1442-1.28748-.2391-.32356-.1257-.55467-.2759-.79734-.5186-.24267-.2426-.39289-.4732-.51885-.7969-.0949-.2441-.208-.611-.23877-1.287-.03322-.7309-.03987-.9504-.03987-2.8019 0-1.8516.00665-2.07.03987-2.8009.03091-.67596.14387-1.04286.23877-1.28726.12567-.32356.27618-.55467.51885-.79734.24267-.24267.47378-.39289.79734-.51885.2444-.09533.61144-.208 1.28748-.23906.6396-.02889.8874-.03755 2.1797-.039v.00174zm4.3229 1.15123c-.4593 0-.832.37224-.832.83172 0 .45934.3727.83202.832.83202.4594 0 .832-.37268.832-.83202 0-.45934-.3726-.83201-.832-.83201v.00029zM9.4403 13.0001c0-1.9663 1.5942-3.56055 3.5605-3.56062 1.9663 0 3.5601 1.59422 3.5601 3.56062 0 1.9663-1.5937 3.5598-3.56 3.5598-1.9663 0-3.5606-1.5935-3.5606-3.5598z" fill="#fff"/><path d="M13.0006 10.6889c1.2763 0 2.3111 1.0347 2.3111 2.3112 0 1.2763-1.0348 2.3111-2.3111 2.3111-1.2765 0-2.3111-1.0348-2.3111-2.3111 0-1.2765 1.0346-2.3112 2.3111-2.3112z" fill="#fff"/></svg>