<svg width="26" height="26" fill="none" xmlns="http://www.w3.org/2000/svg"><path fill-rule="evenodd" clip-rule="evenodd" d="M0 13C0 5.8203 5.8203 0 13 0s13 5.8203 13 13-5.8203 13-13 13S0 20.1797 0 13zm18.0759 6.7279c1.2176 0 2.1875-.7839 2.7241-2.6619l-.9079-.3505c-.4541 1.2582-.8462 1.4858-1.1557 1.4858-.3096 0-.4748-.2062-.4748-.6188 0-.1856.0415-.3915.1032-.6397l.6605-2.372c.1651-.557.227-1.0501.227-1.5039 0-1.7747-1.0732-2.6989-2.3733-2.6989-1.2175 0-2.4558 1.1022-3.0748 2.258l.4539-2.0665h-3.5289l-.4953 1.8325h1.651l-1.0166 4.0608c-.7985 1.7747-2.26498 1.7939-2.44899 1.7526-.3022-.0681-.49545-.1809-.49545-.5735 0-.2266.04123-.5481.14444-.9405l1.54791-6.1319H5.69524l-.49528 1.8325h1.63021l-1.05246 4.2866c-.08247.3508-.12387.7168-.12387 1.0258 0 1.2178.66038 2.0215 2.06369 2.0215 1.164 0 2.10751-.7005 2.78677-1.8165l-.4148 1.6462h2.3113l1.3208-5.2791c.3301-1.3415.9698-2.019 1.9399-2.019.7636 0 1.2382.4749 1.2382 1.2588 0 .2272-.0207.4745-.1032.7429l-.6811 2.4351c-.1032.3509-.1443.702-.1443 1.0318 0 1.1561.6808 2.0018 2.1048 2.0018zM7.28432 7.88232c0-.78391.63964-1.38232 1.40322-1.38232.76367 0 1.40336.59841 1.40336 1.38232 0 .78449-.63969 1.38298-1.40336 1.38298-.76358 0-1.40322-.59849-1.40322-1.38298z" fill="#fff"/></svg>